<svg width="209" height="100" viewBox="0 0 209 100" fill="none" xmlns="http://www.w3.org/2000/svg">
<path d="M24.4727 21.1C30.806 21.1 35.5727 22.6 38.7727 25.6C42.0393 28.5333 43.6727 33.1667 43.6727 39.5V76H35.9727L33.8727 68.5H33.4727C31.9393 70.4333 30.406 72.0333 28.8727 73.3C27.406 74.5667 25.6727 75.5 23.6727 76.1C21.7393 76.7 19.3393 77 16.4727 77C13.4727 77 10.7727 76.4333 8.37266 75.3C5.97266 74.1 4.07266 72.3 2.67266 69.9C1.27266 67.4333 0.572656 64.3667 0.572656 60.7C0.572656 55.2333 2.50599 51.0667 6.37266 48.2C10.306 45.3333 16.2727 43.7667 24.2727 43.5L32.8727 43.2V40.2C32.8727 36.2 32.0393 33.4 30.3727 31.8C28.7727 30.2 26.506 29.4 23.5727 29.4C21.106 29.4 18.6727 29.8 16.2727 30.6C13.8727 31.4 11.5393 32.3667 9.27266 33.5L5.97266 25.8C8.43932 24.4667 11.2393 23.3667 14.3727 22.5C17.5727 21.5667 20.9393 21.1 24.4727 21.1ZM26.3727 50.3C20.906 50.5667 17.106 51.6 14.9727 53.4C12.8393 55.1333 11.7727 57.6 11.7727 60.8C11.7727 63.6 12.506 65.6333 13.9727 66.9C15.506 68.1667 17.4727 68.8 19.8727 68.8C23.5393 68.8 26.606 67.6333 29.0727 65.3C31.606 62.9667 32.8727 59.4667 32.8727 54.8V50.1L26.3727 50.3ZM65.3648 18.3C65.3648 20.5 65.2982 22.6 65.1648 24.6C65.0982 26.5333 64.9982 28.0667 64.8648 29.2H65.3648C66.7648 26.9333 68.6648 25.0333 71.0648 23.5C73.5315 21.9667 76.6648 21.2 80.4648 21.2C86.5315 21.2 91.3982 23.5333 95.0648 28.2C98.7982 32.8667 100.665 39.8 100.665 49C100.665 55.2 99.8315 60.3667 98.1648 64.5C96.4982 68.6333 94.1315 71.7667 91.0648 73.9C87.9982 75.9667 84.4315 77 80.3648 77C76.4982 77 73.3648 76.2667 70.9648 74.8C68.6315 73.2667 66.7648 71.4667 65.3648 69.4H64.5648L62.6648 76H54.5648V-5.00679e-06H65.3648V18.3ZM77.6648 29.8C74.6648 29.8 72.2648 30.4667 70.4648 31.8C68.6648 33.1333 67.3648 35.1667 66.5648 37.9C65.7648 40.6333 65.3648 44.1 65.3648 48.3V49.1C65.3648 55.3 66.2315 60.0667 67.9648 63.4C69.7648 66.6667 73.0982 68.3 77.9648 68.3C81.7648 68.3 84.6315 66.6333 86.5648 63.3C88.5648 59.9667 89.5648 55.1667 89.5648 48.9C89.5648 42.5667 88.5648 37.8 86.5648 34.6C84.6315 31.4 81.6648 29.8 77.6648 29.8ZM126.561 21.1C129.828 21.1 132.728 21.7667 135.261 23.1C137.861 24.4333 140.061 26.4667 141.861 29.2H142.261L143.461 22.1H152.361V76.7C152.361 81.7667 151.494 86.0333 149.761 89.5C148.028 92.9667 145.394 95.5667 141.861 97.3C138.328 99.1 133.861 100 128.461 100C124.728 100 121.328 99.7333 118.261 99.2C115.261 98.6667 112.461 97.8333 109.861 96.7V87.4C111.594 88.3333 113.461 89.1 115.461 89.7C117.461 90.3667 119.561 90.8333 121.761 91.1C124.028 91.4333 126.361 91.6 128.761 91.6C132.894 91.6 136.061 90.3333 138.261 87.8C140.528 85.3333 141.661 81.8333 141.661 77.3V75.5C141.661 74.6333 141.694 73.5 141.761 72.1C141.828 70.6333 141.894 69.5667 141.961 68.9H141.561C139.894 71.7 137.794 73.7667 135.261 75.1C132.794 76.3667 129.861 77 126.461 77C120.194 77 115.261 74.5667 111.661 69.7C108.061 64.7667 106.261 57.9333 106.261 49.2C106.261 43.3333 107.061 38.3333 108.661 34.2C110.328 30 112.661 26.7667 115.661 24.5C118.728 22.2333 122.361 21.1 126.561 21.1ZM129.161 29.9C126.628 29.9 124.494 30.6667 122.761 32.2C121.028 33.6667 119.694 35.8333 118.761 38.7C117.894 41.5667 117.461 45.1 117.461 49.3C117.461 55.5667 118.461 60.3333 120.461 63.6C122.461 66.8667 125.394 68.5 129.261 68.5C131.528 68.5 133.461 68.1667 135.061 67.5C136.661 66.8333 137.961 65.8 138.961 64.4C140.028 63 140.794 61.2333 141.261 59.1C141.794 56.9 142.061 54.2667 142.061 51.2V49.2C142.061 44.6 141.594 40.9 140.661 38.1C139.794 35.2333 138.394 33.1667 136.461 31.9C134.594 30.5667 132.161 29.9 129.161 29.9ZM189.957 21.1C195.824 21.1 200.324 22.6667 203.457 25.8C206.657 28.9333 208.257 33.9667 208.257 40.9V76H197.457V42.4C197.457 38.2 196.624 35.0667 194.957 33C193.357 30.8667 190.857 29.8 187.457 29.8C182.457 29.8 179.024 31.4333 177.157 34.7C175.29 37.9667 174.357 42.6667 174.357 48.8V76H163.557V22.1H172.057L173.557 29.3H174.157C175.29 27.4333 176.657 25.9 178.257 24.7C179.857 23.5 181.657 22.6 183.657 22C185.657 21.4 187.757 21.1 189.957 21.1Z" fill="#ffffff"/>
</svg>
